<?xml version="1.0" encoding="UTF-8" standalone="no"?>
<!-- Created with Inkscape (http://www.inkscape.org/) -->

<svg
   version="1.1"
   id="svg1"
   width="265.64026"
   height="270.15973"
   viewBox="0 0 265.64026 270.15973"
   sodipodi:docname="logo-grey.svg"
   inkscape:version="1.4 (86a8ad7, 2024-10-11)"
   xmlns:inkscape="http://www.inkscape.org/namespaces/inkscape"
   xmlns:sodipodi="http://sodipodi.sourceforge.net/DTD/sodipodi-0.dtd"
   xmlns="http://www.w3.org/2000/svg"
   xmlns:svg="http://www.w3.org/2000/svg">
  <defs
     id="defs1">
    <clipPath
       clipPathUnits="userSpaceOnUse"
       id="clipPath2">
      <path
         d="M 0,500 H 500 V 0 H 0 Z"
         transform="translate(-316.00731,-385.37061)"
         id="path2" />
    </clipPath>
    <clipPath
       clipPathUnits="userSpaceOnUse"
       id="clipPath4">
      <path
         d="M 0,500 H 500 V 0 H 0 Z"
         transform="translate(-150.3841,-308.65441)"
         id="path4" />
    </clipPath>
    <clipPath
       clipPathUnits="userSpaceOnUse"
       id="clipPath6">
      <path
         d="M 0,500 H 500 V 0 H 0 Z"
         transform="translate(-314.81241,-368.42341)"
         id="path6" />
    </clipPath>
    <clipPath
       clipPathUnits="userSpaceOnUse"
       id="clipPath8">
      <path
         d="M 0,500 H 500 V 0 H 0 Z"
         transform="translate(-270.6577,-227.08931)"
         id="path8" />
    </clipPath>
    <clipPath
       clipPathUnits="userSpaceOnUse"
       id="clipPath13">
      <path
         d="M 0,500 H 500 V 0 H 0 Z"
         id="path13" />
    </clipPath>
    <clipPath
       clipPathUnits="userSpaceOnUse"
       id="clipPath15">
      <path
         d="M 0,500 H 500 V 0 H 0 Z"
         id="path15" />
    </clipPath>
  </defs>
  <sodipodi:namedview
     id="namedview1"
     pagecolor="#ffffff"
     bordercolor="#000000"
     borderopacity="0.25"
     inkscape:showpageshadow="2"
     inkscape:pageopacity="0.0"
     inkscape:pagecheckerboard="0"
     inkscape:deskcolor="#d1d1d1"
     inkscape:zoom="1.7504999"
     inkscape:cx="132.8192"
     inkscape:cy="213.93888"
     inkscape:window-width="2560"
     inkscape:window-height="1369"
     inkscape:window-x="-8"
     inkscape:window-y="-8"
     inkscape:window-maximized="1"
     inkscape:current-layer="g1" />
  <g
     id="g1"
     inkscape:groupmode="layer"
     inkscape:label="1"
     transform="translate(-200.51213,-119.31947)">
    <path
       id="path1"
       d="m 0,0 c 3.447,-7.905 3.757,-15.224 0.908,-21.761 -0.046,-0.092 -0.081,-0.184 -0.127,-0.276 11.501,-14.799 18.349,-33.378 18.349,-53.53 0,-38.284 -24.725,-70.891 -59.057,-82.714 -1.608,-1.965 -2.941,-3.355 -3.665,-4.079 -7.64,-7.595 -17.361,-12.685 -28.574,-15.04 1.286,-0.058 2.573,-0.08 3.86,-0.08 56.196,0 101.913,45.717 101.913,101.913 C 33.607,-45.625 20.624,-18.659 0,0"
       style="fill:#69686b;fill-opacity:0.09642857;fill-rule:nonzero;stroke:none"
       transform="matrix(1.3333333,0,0,-1.3333333,421.34307,152.8392)"
       clip-path="url(#clipPath2)" />
    <path
       id="path3"
       d="m 0,0 c 0,-25.852 9.686,-49.497 25.622,-67.479 -0.885,4.964 -0.379,9.629 1.505,13.96 0.666,1.528 1.517,3.01 2.516,4.366 C 20.084,-35.135 14.488,-18.211 14.488,0 c 0,35.089 20.774,65.411 50.67,79.313 2.792,3.952 5.365,6.652 6.48,7.767 7.365,7.33 16.671,12.328 27.391,14.776 C 44.155,100.327 0,55.242 0,0"
       style="fill:#69686b;fill-opacity:0.09642857;fill-rule:nonzero;stroke:none"
       transform="matrix(1.3333333,0,0,-1.3333333,200.51213,255.12747)"
       clip-path="url(#clipPath4)" />
    <path
       id="path5"
       d="m 0,0 c -0.207,-0.839 -0.494,-1.677 -0.862,-2.528 -1.608,-3.676 -4.067,-5.779 -4.894,-6.445 -4.366,-3.493 -12.306,-6.113 -17.35,-2.229 -2.665,2.068 -5.308,6.549 -3.55,10.57 1.574,3.631 5.963,4.642 6.561,4.78 0.7,0.161 3.573,0.804 6.445,-0.448 1.436,-0.621 1.908,-1.31 2.999,-1.218 1.724,0.138 3.056,2.022 3.562,3.332 0.126,0.321 0.207,0.632 0.253,0.953 0.011,0.115 0.034,0.23 0.034,0.345 0.035,0.299 0.023,0.598 0,0.896 0,0.081 -0.011,0.15 -0.023,0.219 -0.011,0.172 -0.046,0.344 -0.08,0.505 -0.023,0.138 -0.046,0.276 -0.092,0.414 -0.035,0.149 -0.081,0.299 -0.127,0.436 -0.046,0.173 -0.103,0.334 -0.172,0.494 -0.08,0.242 -0.172,0.471 -0.287,0.69 -0.069,0.161 -0.138,0.31 -0.23,0.471 -0.034,0.069 -0.069,0.138 -0.115,0.218 -0.034,0.081 -0.08,0.15 -0.126,0.23 -0.081,0.149 -0.161,0.299 -0.253,0.437 -0.126,0.218 -0.253,0.425 -0.391,0.62 -0.563,0.839 -1.103,1.494 -1.401,1.861 -0.276,0.334 -0.563,0.667 -0.874,0.977 -0.298,0.31 -0.62,0.609 -0.953,0.896 -0.311,0.253 -0.632,0.506 -0.965,0.747 -0.345,0.253 -0.701,0.494 -1.069,0.724 -0.287,0.184 -0.574,0.345 -0.873,0.517 -0.356,0.195 -0.713,0.379 -1.08,0.551 -0.264,0.127 -0.517,0.242 -0.793,0.357 -0.31,0.137 -0.632,0.275 -0.965,0.39 -0.678,0.264 -1.379,0.494 -2.091,0.701 -0.299,0.092 -0.609,0.184 -0.919,0.264 -0.414,0.104 -0.828,0.207 -1.253,0.288 -0.207,0.057 -0.425,0.091 -0.643,0.137 -0.219,0.046 -0.437,0.092 -0.655,0.127 -0.402,0.069 -0.804,0.138 -1.207,0.195 -0.149,0.023 -0.287,0.046 -0.425,0.058 -0.459,0.069 -0.919,0.126 -1.39,0.172 -0.505,0.057 -1.022,0.103 -1.539,0.138 -0.288,0.023 -0.586,0.046 -0.885,0.057 -0.299,0.023 -0.598,0.035 -0.896,0.035 -0.207,0.011 -0.414,0.023 -0.621,0.023 -0.207,0.011 -0.413,0.011 -0.609,0.011 -0.034,0.012 -0.069,0.012 -0.103,0 -0.012,0.012 -0.023,0 -0.023,0 -5.423,0.081 -10.95,-0.655 -15.638,-1.815 -6.893,-1.712 -16.774,-4.159 -23.565,-13.558 -1.677,-2.321 -7.893,-10.432 -6.124,-20.13 0.77,-4.182 2.735,-7.146 4.228,-9.341 4.7,-6.917 10.847,-10.272 14.351,-12.225 17.303,-9.709 25.967,-14.569 31.367,-20.911 2.217,-2.608 9.18,-11.409 10.099,-23.795 0.712,-9.582 -2.39,-18.556 -3.447,-18.452 -0.758,0.069 0.138,5.273 -1.551,11.122 -1.723,5.951 -5.814,11.432 -15.683,18.349 -13.259,9.283 -17.488,7.502 -35.802,17.119 -18.441,9.674 -23.669,16.476 -25.794,19.567 -1.839,2.666 -5.871,8.675 -7.227,17.12 -3.355,20.934 12.857,37.559 14.672,39.363 0.207,0.195 0.402,0.402 0.609,0.586 18.269,17.568 43.511,14.374 50.095,13.535 6.296,-0.793 17.257,-3.137 27.472,-10.674 6.905,-5.09 9.272,-9.467 9.892,-10.674 C -1.976,15.224 2.022,7.824 0,0"
       style="fill:#69686b;fill-opacity:0.09642857;fill-rule:nonzero;stroke:none"
       transform="matrix(1.3333333,0,0,-1.3333333,419.74987,175.43547)"
       clip-path="url(#clipPath6)" />
    <path
       id="path7"
       d="m 0,0 c -1.08,-1.069 -2.183,-2.068 -3.309,-2.987 -17.97,-14.856 -41.122,-11.927 -47.395,-11.134 -0.953,0.127 -2.022,0.276 -3.171,0.483 -6.434,1.137 -15.637,3.791 -24.289,10.191 -4.883,3.596 -7.503,6.848 -8.836,8.87 -0.551,0.827 -0.873,1.459 -1.057,1.804 -1.103,2.137 -5.905,10.984 -2.114,19.682 0.265,0.609 0.552,1.183 0.862,1.712 1.517,2.631 3.332,4.182 4.021,4.733 4.378,3.493 12.306,6.113 17.35,2.229 2.665,-2.068 5.308,-6.549 3.561,-10.57 -1.585,-3.631 -5.974,-4.642 -6.56,-4.78 -0.701,-0.161 -3.573,-0.804 -6.446,0.448 -1.448,0.621 -1.919,1.31 -3.01,1.218 -0.77,-0.057 -1.459,-0.471 -2.022,-1.011 -0.724,-0.689 -1.253,-1.597 -1.528,-2.321 -1.356,-3.527 2.045,-7.617 2.998,-8.789 5.067,-6.216 15.523,-7.905 25.439,-7.25 3.883,0.253 7.663,0.861 11.03,1.7 6.893,1.712 16.774,4.159 23.576,13.558 1.666,2.321 7.894,10.433 6.113,20.13 -0.77,4.182 -2.735,7.146 -4.228,9.341 -4.7,6.917 -10.847,10.272 -14.339,12.225 -17.315,9.709 -25.967,14.569 -31.367,20.911 -2.229,2.608 -9.192,11.409 -10.111,23.795 -0.712,9.582 2.401,18.556 3.447,18.453 0.758,-0.069 -0.138,-5.274 1.562,-11.123 1.724,-5.951 5.803,-11.432 15.672,-18.337 C -40.88,83.886 -36.652,85.667 -18.349,76.05 0.092,66.376 5.32,59.574 7.445,56.483 9.284,53.818 13.328,47.808 14.672,39.364 18.039,18.429 1.815,1.804 0,0"
       style="fill:#69686b;fill-opacity:0.09642857;fill-rule:nonzero;stroke:none"
       transform="matrix(1.3333333,0,0,-1.3333333,360.87693,363.88093)"
       clip-path="url(#clipPath8)" />
    <g
       id="g8"
       aria-label="LIBRA OFFICE"
       transform="matrix(1.3333333,0,0,1.3333333,66.5456,468.26307)">
      <path
         id="path9"
         d="m 7.5009563,0.60836406 c -1.1894532,0 -2.0507813,-0.17578125 -2.5898438,-0.52734375 C 4.3779094,-0.26175312 4.043925,-0.71878437 3.9033,-1.2900734 3.762675,-1.8672219 3.6923625,-2.4795266 3.6923625,-3.1299172 V -38.602573 c 0,-0.694336 0.058594,-1.31836 0.1757813,-1.875 0.1230468,-0.553711 0.4511718,-1.001954 0.984375,-1.347657 0.5390625,-0.351562 1.4003906,-0.527343 2.5898437,-0.527343 1.1484375,0 1.9746094,0.175781 2.484375,0.527343 0.5156255,0.345703 0.8437505,0.793946 0.9843755,1.347657 0.140625,0.55664 0.210937,1.180664 0.210937,1.875 v 32.5781246 h 18.691406 c 0.609375,0 1.171875,0.052734 1.6875,0.1523437 0.515625,0.1025391 0.914063,0.3925781 1.195313,0.8671875 0.287109,0.46875 0.433594,1.2158203 0.433594,2.2382813 0,1.0253906 -0.146485,1.77539059 -0.433594,2.24999996 -0.28125,0.46875 -0.667969,0.7734375 -1.160156,0.9140625 -0.492188,0.140625 -1.048829,0.2109375 -1.664063,0.2109375 z m 33.9199217,0 c -1.189453,0 -2.039062,-0.17578125 -2.554687,-0.52734375 C 38.356425,-0.26175312 38.0283,-0.71878437 37.881816,-1.2900734 37.741191,-1.8672219 37.670878,-2.5029641 37.670878,-3.2002297 V -38.602573 c 0,-0.694336 0.07031,-1.31836 0.210938,-1.875 0.146484,-0.553711 0.486328,-1.001954 1.019531,-1.347657 0.539062,-0.351562 1.400391,-0.527343 2.589844,-0.527343 1.148437,0 1.974609,0.175781 2.484375,0.527343 0.515625,0.345703 0.84375,0.793946 0.984375,1.347657 0.140625,0.55664 0.210937,1.201171 0.210937,1.933593 v 35.4140628 c 0,0.6972656 -0.07031,1.3212891 -0.210937,1.875 -0.140625,0.54785158 -0.480469,0.99316408 -1.019532,1.33593751 -0.533203,0.3515625 -1.371093,0.52734375 -2.519531,0.52734375 z m 13.40625,-0.0585938 c -1.110351,0 -1.921875,-0.18457031 -2.4375,-0.55078125 -0.509765,-0.36621093 -0.832031,-0.85839843 -0.972656,-1.47656241 -0.140625,-0.6152344 -0.210938,-1.2919922 -0.210938,-2.0273439 V -38.415073 c 0,-0.694336 0.07031,-1.338868 0.210938,-1.933594 0.140625,-0.591797 0.474609,-1.083985 1.007812,-1.476563 0.539063,-0.389648 1.359375,-0.585937 2.460938,-0.585937 h 16.230469 c 2.373047,0 4.464843,0.55664 6.269531,1.664062 1.804687,1.101563 3.225586,2.575196 4.265625,4.417969 1.045898,1.845703 1.570312,3.852539 1.570312,6.023438 0,0.984375 -0.114257,1.951171 -0.339843,2.894531 -0.228516,0.9375 -0.574219,1.816406 -1.042969,2.636719 -0.46875,0.820312 -1.051758,1.558593 -1.746094,2.214843 0.9375,0.735352 1.751953,1.646485 2.449219,2.730469 0.703125,1.086914 1.224609,2.24707 1.570312,3.480469 0.351563,1.227539 0.527344,2.516601 0.527344,3.867187 -0.04102,1.845703 -0.386719,3.5566409 -1.042969,5.1328128 -0.65625,1.5791016 -1.582031,2.9619141 -2.777343,4.1484375 -1.189453,1.1894531 -2.560547,2.109375 -4.113282,2.76562501 -1.555664,0.65625 -3.216796,0.984375 -4.980468,0.984375 z M 58.635722,-6.704136 h 12.480469 c 1.148437,0 2.191406,-0.2226562 3.128906,-0.6679687 0.943359,-0.451172 1.681641,-1.1484376 2.214844,-2.0859376 0.530273,-0.9433597 0.796875,-2.1738277 0.796875,-3.6914057 0,-1.195313 -0.152344,-2.147461 -0.457032,-2.859375 -0.304687,-0.717774 -0.726562,-1.271485 -1.265625,-1.664063 -0.533203,-0.389648 -1.107421,-0.667969 -1.722656,-0.832031 -0.609375,-0.164063 -1.236328,-0.263672 -1.875,-0.304688 -0.632812,-0.03809 -1.21582,-0.05859 -1.746094,-0.05859 h -2.765625 c -1.063476,0 -1.839843,-0.246094 -2.332031,-0.738282 -0.492187,-0.492187 -0.738281,-1.330078 -0.738281,-2.519531 0,-1.148437 0.263672,-1.957031 0.796875,-2.425781 0.530273,-0.47461 1.350586,-0.714844 2.460937,-0.714844 h 2.707032 c 0.530273,0 1.113281,-0.01758 1.746093,-0.05859 0.632813,-0.03809 1.233399,-0.190429 1.804688,-0.457031 0.577148,-0.263672 1.048828,-0.706055 1.417969,-1.324219 0.375,-0.615234 0.5625,-1.5 0.5625,-2.648437 0,-1.842774 -0.486328,-3.181641 -1.453125,-4.019531 -0.960938,-0.84375 -2.586914,-1.265625 -4.875,-1.265625 H 58.635722 Z m 35.774414,7.25390626 c -1.148438,0 -1.989258,-0.1640625 -2.519531,-0.4921875 -0.533203,-0.328125 -0.861328,-0.78808593 -0.984375,-1.38281256 -0.125977,-0.5917968 -0.1875,-1.21875 -0.1875,-1.875 V -38.661167 c 0,-0.65625 0.07031,-1.259766 0.210937,-1.816406 0.146485,-0.553711 0.486328,-1.001954 1.019531,-1.347657 0.530274,-0.351562 1.371094,-0.527343 2.519532,-0.527343 h 13.16016 c 1.84277,0 3.62402,0.298828 5.34375,0.890625 1.71679,0.594726 3.25195,1.508789 4.60546,2.742187 1.35059,1.227539 2.42579,2.742188 3.22266,4.546875 0.80274,1.804688 1.20703,3.93457 1.20703,6.386719 0,1.564453 -0.24609,3.134765 -0.73828,4.710937 -0.49219,1.570313 -1.22461,3.035157 -2.19141,4.394532 -0.96093,1.353515 -2.18847,2.490234 -3.67968,3.410156 -1.49414,0.922851 -3.22266,1.523437 -5.19141,1.804687 H 98.160136 v 10.3359378 c 0,0.6503906 -0.07617,1.2626953 -0.222656,1.8398438 -0.140625,0.57128903 -0.46875,1.01953121 -0.984375,1.34765621 -0.509766,0.328125 -1.356446,0.4921875 -2.542969,0.49218745 z m 26.121094,-0.9140625 c -1.18945,0.85839844 -2.15332,1.17480469 -2.89453,0.94921875 -0.73535,-0.22851562 -1.49414,-0.89355468 -2.27344,-2.00390621 l -10.32422,-15.6093753 8.36719,-1.101562 8.16797,12.410156 c 0.57715,0.8203125 0.92578,1.5205078 1.04297,2.0976562 0.12304,0.5712891 0.0234,1.1015625 -0.30469,1.59375 -0.32813,0.4921875 -0.92285,1.04882819 -1.78125,1.66406256 z M 98.160136,-20.836948 h 10.382814 c 0.74121,0 1.46777,-0.131836 2.17969,-0.398438 0.71777,-0.263672 1.35351,-0.694336 1.91015,-1.289062 0.55371,-0.591797 1.00196,-1.31836 1.34766,-2.179688 0.35156,-0.867187 0.52734,-1.913086 0.52734,-3.140625 0,-1.476562 -0.27832,-2.733398 -0.83203,-3.773437 -0.55664,-1.045899 -1.35644,-1.845704 -2.40234,-2.402344 -1.04004,-0.553711 -2.29688,-0.832031 -3.77344,-0.832031 h -9.339844 z m 68.835934,16.2304683 c 0.41309,0.7734375 0.62696,1.4589844 0.64453,2.0507813 0.0234,0.5947265 -0.15234,1.1103515 -0.52734,1.546875 -0.36914,0.43066403 -0.98144,0.86718746 -1.83984,1.31249996 -1.3125,0.61523438 -2.33789,0.77929684 -3.07032,0.4921875 C 161.46775,0.505825 160.791,-0.28812031 160.17576,-1.5947609 L 146.52342,-30.493198 132.88279,-1.5947609 c -0.61816,1.26562496 -1.29492,2.04199215 -2.02734,2.33203121 -0.73535,0.28710939 -1.75781,0.12304688 -3.07031,-0.4921875 -0.82032,-0.40429687 -1.42676,-0.83496093 -1.81641,-1.28906251 -0.39258,-0.4511719 -0.55664,-0.9960937 -0.49219,-1.6289062 0.0615,-0.6328125 0.2959,-1.4003907 0.70313,-2.3085938 L 143.08982,-40.13773 c 0.32813,-0.65625 0.8086,-1.186523 1.44141,-1.59375 0.63281,-0.413086 1.31836,-0.621093 2.0625,-0.621093 0.49219,0 0.94043,0.09375 1.34766,0.28125 0.41308,0.18164 0.79101,0.433593 1.13671,0.761718 0.35157,0.328125 0.64747,0.738282 0.89063,1.230469 z m -31.40625,-5.9062503 2.95313,-6.386718 h 16.04297 l 2.88281,6.386718 z m 0,0"
         style="fill:#003d68;fill-opacity:1;fill-rule:nonzero;stroke:none" />
      <path
         id="path10"
         d="m 206.32713,0.98336406 c -2.90625,0 -5.63086,-0.55078125 -8.16797,-1.65234375 -2.54004,-1.10742191 -4.78711,-2.64843751 -6.73828,-4.61718751 -1.94531,-1.96875 -3.46289,-4.2421875 -4.54688,-6.8203128 -1.08691,-2.583984 -1.6289,-5.349609 -1.6289,-8.296875 0,-3.029297 0.53027,-5.876953 1.59375,-8.542968 1.06933,-2.663086 2.5459,-4.998047 4.42968,-7.007813 1.88965,-2.006836 4.07227,-3.585937 6.55079,-4.734375 2.47558,-1.148437 5.12695,-1.722656 7.95703,-1.722656 2.91211,0 5.63965,0.55664 8.17968,1.664062 2.53711,1.101563 4.76075,2.648438 6.66797,4.640625 1.9043,1.986328 3.40137,4.300782 4.48828,6.949219 1.08399,2.642578 1.62891,5.478516 1.62891,8.507813 0,2.947265 -0.53613,5.71875 -1.60547,8.320312 -1.06347,2.6015626 -2.54004,4.9072266 -4.42969,6.9140626 -1.88378,2.0097656 -4.05468,3.5800781 -6.51562,4.71093746 -2.45508,1.125 -5.07422,1.6875 -7.86328,1.6875 z m -0.36328,-3.69140626 c 2.37304,0 4.59668,-0.4599609 6.66797,-1.3828125 2.06836,-0.9199219 3.88183,-2.2089844 5.4375,-3.8671875 1.55273,-1.6640625 2.77148,-3.5800778 3.65625,-5.7539058 0.88183,-2.170899 1.32421,-4.50586 1.32421,-7.007813 0,-2.452148 -0.44238,-4.763672 -1.32421,-6.9375 -0.88477,-2.170898 -2.11524,-4.083984 -3.69141,-5.742187 -1.57031,-1.664063 -3.38379,-2.964844 -5.4375,-3.902344 -2.04785,-0.94336 -4.23926,-1.417969 -6.57422,-1.417969 -2.33789,0 -4.54101,0.474609 -6.60937,1.417969 -2.07129,0.9375 -3.89649,2.226562 -5.47266,3.867187 -1.57031,1.640625 -2.79785,3.559571 -3.67969,5.753907 -0.88476,2.188476 -1.32422,4.532226 -1.32422,7.03125 0,2.455078 0.44825,4.766601 1.34766,6.9375 0.90527,2.173828 2.13574,4.0781246 3.69141,5.7187496 1.55273,1.640625 3.35449,2.9355468 5.40234,3.8789062 2.05371,0.9375 4.24805,1.40625 6.58594,1.40625 z m 29.87109,3.38671876 c -0.4541,0 -0.81445,-0.0644531 -1.07812,-0.1875 -0.26661,-0.12597656 -0.45118,-0.328125 -0.55079,-0.609375 -0.10253,-0.28710937 -0.15234,-0.65917968 -0.15234,-1.11328126 V -40.383823 c 0,-0.694336 0.14063,-1.174805 0.42188,-1.441407 0.28711,-0.263672 0.80273,-0.398437 1.54687,-0.398437 h 25.44141 c 0.45117,0 0.7998,0.06445 1.04297,0.1875 0.24902,0.117187 0.4248,0.310547 0.52734,0.574219 0.0996,0.266601 0.15234,0.644531 0.15234,1.136718 0,0.454102 -0.0645,0.814453 -0.1875,1.078125 -0.12597,0.266602 -0.32226,0.451172 -0.58593,0.550782 -0.26661,0.102539 -0.6211,0.152343 -1.06641,0.152343 h -23.67188 v 15.1875 h 16.59375 c 0.45118,0 0.81153,0.06445 1.07813,0.1875 0.26367,0.117188 0.45996,0.313477 0.58594,0.585938 0.12304,0.266601 0.1875,0.641601 0.1875,1.125 0,0.454101 -0.0645,0.814453 -0.1875,1.078125 -0.12598,0.266601 -0.32227,0.454101 -0.58594,0.5625 -0.2666,0.102539 -0.64453,0.152344 -1.13672,0.152344 h -16.53516 v 18.4921871 c 0,0.45410153 -0.0644,0.81445309 -0.1875,1.07812496 -0.11718,0.26367188 -0.31054,0.45996094 -0.57421,0.5859375 -0.26661,0.12304688 -0.62696,0.1875 -1.07813,0.1875 z m 39.15234,0 c -0.4541,0 -0.81445,-0.0644531 -1.07812,-0.1875 -0.2666,-0.12597656 -0.45117,-0.328125 -0.55078,-0.609375 -0.10254,-0.28710937 -0.15235,-0.65917968 -0.15235,-1.11328126 V -40.383823 c 0,-0.694336 0.14063,-1.174805 0.42188,-1.441407 0.28711,-0.263672 0.80273,-0.398437 1.54687,-0.398437 h 25.44141 c 0.45117,0 0.79981,0.06445 1.04297,0.1875 0.24902,0.117187 0.4248,0.310547 0.52734,0.574219 0.0996,0.266601 0.15235,0.644531 0.15235,1.136718 0,0.454102 -0.0645,0.814453 -0.1875,1.078125 -0.12598,0.266602 -0.32227,0.451172 -0.58594,0.550782 -0.2666,0.102539 -0.62109,0.152343 -1.06641,0.152343 h -23.67187 v 15.1875 h 16.59375 c 0.45117,0 0.81152,0.06445 1.07812,0.1875 0.26368,0.117188 0.45996,0.313477 0.58594,0.585938 0.12305,0.266601 0.1875,0.641601 0.1875,1.125 0,0.454101 -0.0645,0.814453 -0.1875,1.078125 -0.12598,0.266601 -0.32226,0.454101 -0.58594,0.5625 -0.2666,0.102539 -0.64453,0.152344 -1.13672,0.152344 h -16.53515 v 18.4921871 c 0,0.45410153 -0.0645,0.81445309 -0.1875,1.07812496 -0.11719,0.26367188 -0.31055,0.45996094 -0.57422,0.5859375 -0.2666,0.12304688 -0.62695,0.1875 -1.07813,0.1875 z m 38.28516,0 c -0.44531,0 -0.80273,-0.0644531 -1.06641,-0.1875 -0.2666,-0.12597656 -0.4541,-0.328125 -0.5625,-0.609375 -0.10253,-0.28710937 -0.15234,-0.65917968 -0.15234,-1.11328126 V -40.383823 c 0,-0.451172 0.0615,-0.811524 0.1875,-1.078125 0.12305,-0.263672 0.31934,-0.457032 0.58594,-0.574219 0.26367,-0.123047 0.62402,-0.1875 1.07812,-0.1875 0.44532,0 0.79981,0.06445 1.06641,0.1875 0.27246,0.117187 0.45996,0.310547 0.5625,0.574219 0.0996,0.266601 0.15234,0.644531 0.15234,1.136718 v 39.1523441 c 0,0.45410153 -0.0645,0.81445309 -0.1875,1.07812496 -0.12597,0.26367188 -0.32226,0.45996094 -0.58593,0.5859375 -0.26661,0.12304688 -0.62696,0.1875 -1.07813,0.1875 z m 31.47949,-0.0703125 c -2.42285,0 -4.69922,-0.34863281 -6.83203,-1.04296875 -2.12695,-0.69433591 -4.07226,-1.68750001 -5.83594,-2.97656251 -1.75781,-1.2890625 -3.27539,-2.8417969 -4.54687,-4.6640625 -1.26563,-1.828125 -2.25,-3.8583983 -2.95313,-6.0937503 -0.69726,-2.232422 -1.04296,-4.620117 -1.04296,-7.160156 0,-2.499023 0.3457,-4.833984 1.04296,-7.007812 0.70313,-2.170899 1.6875,-4.116211 2.95313,-5.835938 1.27148,-1.725586 2.78906,-3.210937 4.54687,-4.453125 1.76368,-1.248047 3.70899,-2.214844 5.83594,-2.894531 2.13281,-0.679688 4.40918,-1.03711 6.83203,-1.078125 2.04492,0 3.78516,0.196289 5.21485,0.585937 1.43554,0.392578 2.60449,0.814453 3.5039,1.265625 0.90528,0.445313 1.54102,0.793946 1.91016,1.042969 0.49219,0.28125 0.97266,0.618164 1.44141,1.007813 0.4746,0.392578 0.75293,0.814453 0.83203,1.265625 0.085,0.407226 0.0732,0.714843 -0.0352,0.925781 -0.10254,0.205078 -0.21094,0.407226 -0.32812,0.609375 -0.16407,0.290039 -0.37207,0.498047 -0.6211,0.621094 -0.24316,0.117187 -0.50976,0.175781 -0.79687,0.175781 -0.36914,0 -0.69727,-0.120117 -0.98438,-0.363281 -0.29004,-0.249024 -0.65625,-0.518555 -1.10156,-0.808594 -0.25195,-0.164063 -0.78516,-0.448242 -1.60547,-0.855469 -0.82031,-0.404297 -1.875,-0.791016 -3.16406,-1.160156 -1.28906,-0.375 -2.79492,-0.5625 -4.51172,-0.5625 -2.46094,0 -4.74609,0.430664 -6.85547,1.289062 -2.10937,0.861328 -3.94629,2.080078 -5.50781,3.65625 -1.55567,1.579102 -2.7627,3.454102 -3.6211,5.625 -0.86132,2.173828 -1.28906,4.590821 -1.28906,7.253907 0,2.666015 0.42774,5.094726 1.28906,7.289062 0.8584,2.188477 2.06543,4.0722657 3.6211,5.6484376 1.56152,1.5791015 3.39844,2.8007812 5.50781,3.6679687 2.10938,0.8613281 4.39453,1.2890625 6.85547,1.2890625 1.7168,0 3.22266,-0.1816406 4.51172,-0.5507812 1.28906,-0.375 2.34375,-0.7763672 3.16406,-1.2070313 0.82031,-0.4277344 1.35352,-0.7060547 1.60547,-0.8320312 0.44531,-0.2402344 0.81152,-0.4833985 1.10156,-0.7265625 0.28711,-0.2490235 0.61524,-0.375 0.98438,-0.375 0.28711,0 0.55371,0.052734 0.79687,0.1523437 0.24903,0.1025391 0.45703,0.2988281 0.6211,0.5859375 0.11718,0.1640625 0.22558,0.3720703 0.32812,0.6210938 0.1084,0.243164 0.12012,0.5683593 0.0352,0.9726562 -0.0791,0.4541016 -0.35743,0.8759766 -0.83203,1.265625 -0.46875,0.3837891 -0.94922,0.7207031 -1.44141,1.0078125 -0.36914,0.2050781 -1.01367,0.5449219 -1.93359,1.0195313 -0.92286,0.46874996 -2.10352,0.88769528 -3.53907,1.25390621 -1.42968,0.36621094 -3.14941,0.55078125 -5.15625,0.55078125 z m 23.96778,0.0703125 c -0.45411,0 -0.81446,-0.0644531 -1.07813,-0.1875 -0.2666,-0.12597656 -0.45117,-0.328125 -0.55078,-0.609375 -0.10254,-0.28710937 -0.15234,-0.65917968 -0.15234,-1.11328126 V -40.383823 c 0,-0.694336 0.14062,-1.174805 0.42187,-1.441407 0.28711,-0.263672 0.80274,-0.398437 1.54688,-0.398437 h 25.4414 c 0.45117,0 0.81153,0.06445 1.07813,0.1875 0.26367,0.117187 0.44824,0.310547 0.55078,0.574219 0.0996,0.266601 0.15234,0.644531 0.15234,1.136718 0,0.454102 -0.0645,0.814453 -0.1875,1.078125 -0.11718,0.266602 -0.31054,0.451172 -0.57422,0.550782 -0.2666,0.102539 -0.62695,0.152343 -1.07812,0.152343 h -23.73047 v 15.1875 h 16.66406 c 0.44532,0 0.79981,0.06445 1.06641,0.1875 0.27246,0.117188 0.46875,0.313477 0.58594,0.585938 0.12304,0.266601 0.1875,0.641601 0.1875,1.125 0,0.454101 -0.0645,0.814453 -0.1875,1.078125 -0.11719,0.266601 -0.32227,0.454101 -0.60938,0.5625 -0.29004,0.102539 -0.67969,0.152344 -1.17187,0.152344 h -16.53516 v 16.6523433 h 23.78906 c 0.45117,0 0.81153,0.064453 1.07813,0.1875 0.26367,0.1171875 0.44824,0.3134766 0.55078,0.5859375 0.0996,0.2666016 0.15234,0.6210938 0.15234,1.0664063 0,0.45410153 -0.0645,0.81445309 -0.1875,1.07812496 -0.11718,0.26367188 -0.31054,0.45996094 -0.57422,0.5859375 -0.2666,0.12304688 -0.62695,0.1875 -1.07812,0.1875 z m 0,0"
         style="fill:#003d68;fill-opacity:1;fill-rule:nonzero;stroke:none" />
    </g>
    <path
       id="path11"
       d="M 15.563919,-4.4775047 H 6.3998562 L 4.817825,-9.421875e-4 h -3.75 L 8.9193875,-21.926723 h 4.1601565 l 7.839843,21.9257808125 h -3.785156 z m -1.007813,-2.9296875 -3.5625,-10.1718748 -3.5859373,10.1718748 z m 30.333985,-8.1914058 c -0.571289,-1.083985 -1.359375,-1.904297 -2.367188,-2.460938 -1.007812,-0.5625 -2.173828,-0.84375 -3.492187,-0.84375 -1.453125,0 -2.748047,0.328125 -3.878907,0.984375 -1.133789,0.650391 -2.021484,1.570313 -2.660156,2.765625 -0.641601,1.195313 -0.960937,2.583984 -0.960937,4.160156 0,1.5703128 0.319336,2.9619144 0.960937,4.1718753 0.638672,1.2128906 1.526367,2.1416016 2.660156,2.7890625 1.13086,0.6503906 2.425782,0.9726563 3.878907,0.9726563 1.951171,0 3.533203,-0.5419922 4.746093,-1.6289063 1.21875,-1.0927734 1.962891,-2.578125 2.238282,-4.453125 h -8.214844 v -2.8593748 h 12.058594 v 2.8007811 c -0.228516,1.7050781 -0.829102,3.2695312 -1.804688,4.6992187 -0.978516,1.4238281 -2.25,2.5605469 -3.820312,3.4101563 -1.564454,0.85253903 -3.298829,1.27734371 -5.203125,1.27734371 -2.0625,0 -3.946289,-0.47460937 -5.648438,-1.42968751 -1.696289,-0.9521484 -3.043945,-2.2792969 -4.042969,-3.984375 -1.001953,-1.7021484 -1.5,-3.6240234 -1.5,-5.7656253 0,-2.138672 0.498047,-4.060547 1.5,-5.765625 0.999024,-1.702148 2.355469,-3.029297 4.066407,-3.984375 1.710937,-0.952148 3.585937,-1.429687 5.625,-1.429687 2.326171,0 4.397461,0.574219 6.210937,1.722656 1.819336,1.142578 3.140625,2.759766 3.960938,4.851563 z m 16.816406,-3.398438 v 6.421875 h 7.558594 v 2.9296876 h -7.558594 v 6.7148437 h 8.507812 V -9.421875e-4 H 58.120559 V -21.926723 h 12.09375 v 2.929687 z M 97.328567,-9.421875e-4 H 93.74263 L 82.937942,-16.348598 V -9.421875e-4 H 79.352005 V -21.926723 h 3.585937 L 93.74263,-5.6025047 V -21.926723 h 3.585937 z M 105.5815,-10.99313 c 0,-2.138672 0.49804,-4.060547 1.5,-5.765625 0.99902,-1.702148 2.35547,-3.029297 4.0664,-3.984375 1.71094,-0.952148 3.58594,-1.429687 5.625,-1.429687 2.32617,0 4.39746,0.574219 6.21094,1.722656 1.81934,1.142578 3.14063,2.759766 3.96094,4.851563 h -4.3125 c -0.57129,-1.148438 -1.35938,-2.006836 -2.36719,-2.578125 -1.00781,-0.56836 -2.17383,-0.855469 -3.49219,-0.855469 -1.45312,0 -2.74804,0.328125 -3.8789,0.984375 -1.13379,0.65039 -2.02149,1.582031 -2.66016,2.800781 -0.6416,1.21875 -0.96094,2.636719 -0.96094,4.253906 0,1.6171878 0.31934,3.0351566 0.96094,4.2539066 0.63867,1.21875 1.52637,2.1621093 2.66016,2.8242187 1.13086,0.65625 2.42578,0.984375 3.8789,0.984375 1.31836,0 2.48438,-0.28125 3.49219,-0.84375 1.00781,-0.5683594 1.7959,-1.4326172 2.36719,-2.5898437 h 4.3125 c -0.82031,2.1035156 -2.1416,3.7207031 -3.96094,4.8515625 -1.81348,1.13378903 -3.88477,1.69921871 -6.21094,1.69921871 -2.0625,0 -3.94629,-0.47460937 -5.64843,-1.42968751 -1.69629,-0.9521484 -3.04395,-2.2792969 -4.04297,-3.984375 -1.00196,-1.7021484 -1.5,-3.6240234 -1.5,-5.7656253 z m 33.86425,-10.898437 V -9.421875e-4 h -3.58593 V -21.891567 Z m 21.38672,0 v 15.7851561 c 0,1.9541015 -0.59472,3.4980468 -1.78125,4.6289062 -1.18066,1.13378908 -2.73925,1.69921876 -4.67578,1.69921876 -1.93066,0 -3.48926,-0.56542968 -4.67578,-1.69921876 -1.18945,-1.1308594 -1.78125,-2.6748047 -1.78125,-4.6289062 h 3.62109 c 0.0234,0.9609375 0.26954,1.7285156 0.73829,2.296875 0.47461,0.5625 1.1748,0.84375 2.09765,0.84375 0.92871,0 1.63184,-0.2871094 2.10938,-0.8671875 0.4834,-0.5771485 0.72656,-1.3359375 0.72656,-2.2734375 V -21.891567 Z m 23.75391,17.4140623 h -9.16406 l -1.58203,4.4765625125 h -3.75 L 177.94185,-21.926723 h 4.16015 l 7.83985,21.9257808125 h -3.78516 z m -1.00781,-2.9296875 -3.5625,-10.1718748 -3.58594,10.1718748 z m 0,0"
       style="fill:#69686b;fill-opacity:1;fill-rule:nonzero;stroke:none"
       aria-label="AGENCIJA"
       transform="matrix(1.3333333,0,0,1.3333333,206.01373,522.9036)" />
    <path
       id="path12"
       d="M 144.634,116.549 H 50.509 v 1.864 h 94.125 z"
       style="fill:#69686b;fill-opacity:1;fill-rule:nonzero;stroke:none"
       transform="matrix(1.3333333,0,0,-1.3333333,0,666.66667)"
       clip-path="url(#clipPath13)" />
    <path
       id="path14"
       d="m 449.376,116.549 h -94.125 v 1.864 h 94.125 z"
       style="fill:#69686b;fill-opacity:1;fill-rule:nonzero;stroke:none"
       transform="matrix(1.3333333,0,0,-1.3333333,0,666.66667)"
       clip-path="url(#clipPath15)" />
  </g>
</svg>
